PathFileType	4	(X/Y/Z)	C:/Users/beibeiliu/ov580/test_trc/capture2\sequence.27_training_dense_right.trc
DataRate	CameraRate	NumFrames	NumMarkers	Units	OrigDataRate	OrigDataStartFrame	OrigNumFrames
120	120	24	19	mm	120	217	347
Frame#	Time	ThumbCMC			ThumbMCP			ThumbIP			ThumbTip			IndexMCP			IndexPIP			IndexTip			MiddleMCP			MiddlePIP			MiddleTip			RingMCP			RingPIP			RingTip			PinkyMCP			PinkyPIP			PinkyTip			BackHand1			BackHand2			BackHand3	
		X0	Y0	Z0	X1	Y1	Z1	X2	Y2	Z2	X3	Y3	Z3	X4	Y4	Z4	X5	Y5	Z5	X6	Y6	Z6	X7	Y7	Z7	X8	Y8	Z8	X9	Y9	Z9	X10	Y10	Z10	X11	Y11	Z11	X12	Y12	Z12	X13	Y13	Z13	X14	Y14	Z14	X15	Y15	Z15	X16	Y16	Z16	X17	Y17	Z17	X18	Y18	Z18	
216	1.8	97.9059	-25.6541	47.417	104.508	-45.8739	27.9304	99.9155	-62.9585	6.485	94.2192	-77.9995	-9.84687	87.2277	1.24528	-20.8745	84.305	-3.52536	-46.2968	84.2801	-5.7028	-72.5907	106.024	23.2424	-23.9903	108.579	28.9208	-54.4814	105.102	30.4819	-79.7154	126.615	34.9998	-23.1122	130.41	40.8167	-43.3632	128.558	48.0553	-70.2508	154.931	37.3179	-9.72173	163.384	42.5453	-28.9952	173.674	59.8491	-42.111	123.886	34.239	26.5515	128.702	35.1441	55.6389	102.653	15.8519	44.4441	
217	1.80833	99.1271	-25.8264	48.2371	103.089	-48.7293	30.2852	97.6352	-67.235	8.37709	97.2767	-78.5094	-6.29482	84.9908	-0.388224	-20.0979	81.5397	-5.11539	-46.1592	81.4572	-5.19738	-72.5058	107.739	24.3844	-27.8866	109.008	28.2763	-52.6858	107.811	32.5998	-81.8558	127.108	33.9448	-22.987	131.861	41.2073	-44.8421	128.205	47.2059	-68.0049	155.38	36.6259	-8.49407	164.823	41.618	-25.4415	168.937	56.1072	-40.3874	126.767	32.0683	29.0722	127.32	34.1911	55.1772	101.005	14.6483	41.9969	
218	1.81667	97.9298	-24.8025	48.2921	102.31	-48.5547	28.3106	95.9356	-67.4811	8.41897	92.3481	-80.9092	-4.73995	86.1476	-0.320303	-20.4628	82.3507	-4.99907	-47.0132	82.6398	-2.48881	-74.0281	105.54	22.2071	-26.5601	109.115	28.0233	-53.5599	107.899	32.6601	-81.0892	127.852	32.875	-23.623	132.622	40.2556	-41.7045	131.17	46.3377	-66.9267	152.055	34.9999	-8.36631	165.289	41.1339	-21.6296	170.287	55.5952	-43.2301	123.59	33.385	30.7555	123.633	32.5874	57.9262	100.965	16.5567	41.2521	
219	1.825	98.2417	-23.3538	49.4724	97.7449	-48.7147	31.1535	91.6917	-65.041	9.31294	88.628	-78.6382	-4.55511	90.4164	1.8143	-20.8668	86.2965	-3.16126	-49.315	84.7904	-3.32217	-71.7029	107.294	23.367	-28.205	110.006	25.7807	-51.5885	108.45	29.563	-78.5951	130.693	33.9151	-23.1318	131.993	37.4452	-44.3085	131.049	44.6446	-68.9886	153.365	35.9592	-10.8315	163.224	39.1361	-23.5828	172.16	54.0524	-39.9044	125.66	32.906	28.8763	124.381	31.5877	57.2368	99.8014	13.7552	43.9595	
220	1.83333	92.8594	-22.5516	50.4189	93.6051	-44.1847	29.1641	85.7052	-61.9007	11.1266	80.6903	-73.917	-8.02904	87.6732	-1.1154	-23.5711	86.5374	-6.96013	-50.4793	87.0088	-9.67678	-74.4069	110.042	23.4978	-29.1675	109.126	23.108	-55.3907	112.974	28.4037	-79.645	129.769	31.2307	-19.2664	135.089	37.4652	-44.4905	133.674	42.3445	-69.4809	154.351	33.9054	-9.88952	168.261	42.325	-25.5201	171.036	53.6978	-40.0449	127.713	33.9831	28.2136	125.498	30.9454	59.5222	100.157	15.4922	37.9585	
221	1.84167	91.964	-18.9455	49.7079	85.8966	-40.4618	32.9894	79.4649	-52.0234	11.8466	71.7442	-63.6164	-9.29736	92.1583	0.558775	-25.2729	93.1984	-6.97791	-47.6845	93.6596	-15.6749	-72.9247	112.249	22.5859	-26.8083	109.992	20.8956	-55.7082	113.782	25.3294	-80.8849	133.279	31.0911	-19.4065	137.174	37.0796	-46.3919	134.982	40.5992	-68.9	159.387	35.5621	-6.25113	166.198	37.9114	-23.9321	176.4	53.3751	-37.0277	126.82	34.884	30.6678	125.53	31.4732	59.6172	100.463	18.6498	41.8032	
222	1.85	91.3191	-15.3218	49.4722	82.9329	-31.2108	33.8658	69.14	-42.2453	7.82726	62.1801	-51.4015	-6.52293	93.5263	-1.71896	-25.7456	97.4205	-11.4655	-50.4435	101.478	-22.4898	-70.1884	111.929	21.0882	-26.639	112.447	19.8572	-55.3739	114.329	21.5769	-79.7056	132.783	31.0709	-24.0273	138.055	34.8944	-45.0659	138.047	41.6927	-71.7258	160.693	35.3592	-10.4602	168.588	38.9608	-26.983	173.047	51.0184	-39.2241	130.549	35.9117	29.3044	128.396	32.7087	55.7925	100.373	17.5492	39.0087	
223	1.85833	93.9591	-11.6332	50.7348	78.408	-24.7059	29.4793	68.9753	-31.2669	11.1722	54.2453	-38.5354	-11.9249	93.1174	-2.32008	-23.8354	95.0079	-16.7483	-47.1053	110.563	-32.2532	-68.0916	111.874	20.3722	-30.87	115.876	19.3323	-56.8859	117.384	19.1401	-80.0071	134.661	32.6795	-25.7497	136.123	34.1742	-47.2267	138.377	41.4423	-72.2103	157.485	32.4374	-6.09422	167.514	39.1133	-28.0513	178.131	53.8183	-42.1111	128.364	35.0619	29.0653	128.409	34.7068	56.2671	101.175	20.6344	42.8956	
224	1.86667	90.9536	-8.72398	52.6734	79.82	-17.2522	29.0753	66.9421	-21.2394	8.72766	53.3947	-26.0013	-9.9094	94.2861	-0.990209	-24.7906	99.7035	-18.4912	-45.2051	115.203	-40.2209	-60.368	110.801	21.9325	-29.6243	116.99	19.9964	-56.8756	116.198	18.0212	-81.6236	134.978	32.6565	-20.5906	136.899	36.1807	-47.3699	135.912	39.4544	-72.9946	157.821	35.1379	-9.41127	164.977	40.1056	-27.9161	173.937	53.8725	-40.5689	132.22	36.4768	26.0715	132.948	33.3885	56.0871	104.011	23.9138	43.0795	
225	1.875	90.9869	-6.33736	51.6939	78.1086	-14.9917	31.9229	65.4267	-14.0446	7.26531	53.9532	-16.3257	-11.4623	95.7513	1.79922	-24.6438	99.1076	-22.4706	-43.2201	119.799	-41.4195	-51.4356	112.22	22.1448	-30.6472	112.158	17.0444	-55.384	115.274	16.2894	-79.942	134.578	34.3204	-25.7339	133.673	33.8	-46.2824	139.497	41.1437	-70.9556	155.247	35.5114	-12.1575	168.447	40.987	-25.8986	173.593	57.4371	-44.1293	130.857	34.1507	25.596	136.727	34.586	56.1493	103.681	24.9808	44.8967	
226	1.88333	94.1909	-5.93358	54.4258	76.0982	-12.1416	27.721	65.6163	-12.4587	7.16674	54.0823	-12.0178	-14.7339	92.8326	1.64205	-20.8988	103.443	-20.6116	-40.935	120.879	-42.6046	-44.5492	113.929	23.3368	-32.5098	110.915	16.8697	-55.8895	115.622	15.1345	-81.7015	132.037	33.8487	-26.8114	134.817	34.9206	-45.7027	135.595	38.6097	-71.1485	155.527	33.946	-8.78645	162.786	39.7628	-28.1724	169.563	55.8664	-41.3864	133.933	38.629	25.4542	134.073	33.0445	58.0768	104.214	24.339	43.3062	
227	1.89167	94.344	-5.33351	53.6237	76.3561	-13.7283	28.8902	69.6481	-11.0137	2.88597	62.2733	-11.1554	-15.2747	96.4565	1.59985	-25.365	104.6	-24.5851	-39.9458	121.691	-46.2411	-37.0815	112.995	23.954	-32.0946	110.784	16.7541	-54.9192	114.515	13.9532	-80.7491	131.273	33.9943	-26.6866	132.037	35.4542	-47.7793	136.381	40.7488	-75.5046	154.597	34.9021	-11.7777	162.522	41.5736	-31.4079	171.264	55.7628	-45.0798	133.19	37.2002	26.2392	134.485	34.0005	58.5422	106.973	26.8927	45.7152	
228	1.9	88.2871	-5.53376	49.8098	75.6125	-13.4805	29.1412	71.3653	-9.76193	1.34414	64.1658	-9.7224	-20.8405	95.6259	3.21685	-22.677	101.916	-20.2992	-38.87	118.925	-50.2141	-32.5441	112.577	24.5143	-28.3313	110.946	17.0495	-53.5261	109.866	12.1935	-81.6782	129.359	32.694	-22.6561	134.017	36.2869	-50.0283	133.287	39.7203	-76.4598	157.077	34.4282	-9.50584	161.209	39.521	-27.2457	165.624	55.8287	-46.3624	131.427	36.8012	29.1336	133.227	33.6673	57.2776	101.268	26.2692	42.117	
229	1.90833	89.3589	-7.55101	52.0859	78.3746	-15.5825	29.3775	70.8258	-12.4276	1.15841	68.3403	-12.1572	-20.1006	93.079	3.50033	-23.3326	101.194	-20.5259	-39.0098	122.058	-48.453	-29.6519	106.539	22.8194	-27.1221	109.848	17.2569	-56.9136	110.035	10.474	-82.9793	126.956	33.9094	-26.5099	130.94	35.6589	-50.0171	133.51	38.4118	-71.7754	155.135	36.2715	-13.1125	157.848	40.5697	-32.8531	166.221	55.4891	-48.4773	132.538	36.9748	25.1828	132.79	32.9681	59.5708	100.868	25.9316	44.2211	
230	1.91667	93.0151	-6.57484	49.1388	80.8854	-15.8887	24.6782	74.2418	-15.445	0.0451466	74.3824	-11.1399	-25.6253	90.8891	3.71431	-22.8764	101.319	-18.276	-38.6075	117.109	-45.2263	-30.3079	109.36	24.8396	-27.2223	107.333	17.1865	-55.3336	108.935	11.3469	-78.6805	126.088	32.4513	-22.9744	131.279	35.2668	-49.9007	130.955	37.4764	-75.7709	152.488	35.6704	-13.0411	160.047	41.3458	-31.1798	165.323	52.5379	-44.8018	133.105	36.5504	30.2299	135.528	33.9636	60.1947	101.16	23.2868	45.6283	
231	1.925	89.4041	-9.44782	50.448	78.4971	-18.1397	23.4886	71.8165	-18.3744	-1.01281	76.1161	-13.4401	-25.863	89.4297	4.01576	-22.7274	100.547	-23.2213	-39.2414	120.36	-44.6478	-26.5625	110.579	24.9045	-28.0513	109.044	17.9671	-55.7715	112.589	13.8929	-79.1076	126.623	32.9331	-22.9415	130.121	35.2459	-45.8825	134.637	38.4631	-71.6459	155.213	36.5198	-8.80365	161.361	41.9636	-30.4545	162.911	55.2258	-44.8016	130.721	36.4784	29.8928	133.63	34.8831	57.3232	103.523	25.7493	43.5728	
232	1.93333	92.7396	-8.23419	51.1988	82.4791	-19.4244	24.5746	75.0616	-18.1475	-5.18462	75.8469	-17.498	-28.9446	92.3018	5.64853	-25.8552	102.672	-19.7204	-38.8317	119.281	-41.8664	-26.3049	110.253	25.9363	-31.1817	110.031	20.4147	-53.0668	113.497	14.8302	-84.7884	130.521	36.6253	-24.809	129.676	36.8867	-50.1434	131.313	39.7711	-74.2272	152.358	37.4025	-10.6018	158.978	43.3387	-30.8682	163.667	53.5968	-43.8909	132.771	38.0919	26.8628	136.06	33.9558	61.2945	99.758	24.3415	46.0509	
233	1.94167	91.6845	-8.12485	49.4977	80.2094	-20.6197	22.628	75.6476	-19.9794	-6.9503	74.7772	-21.6975	-28.1365	91.1602	7.49734	-22.4048	102.146	-20.1249	-39.5609	117.673	-39.3282	-26.0506	105.56	27.3784	-28.2308	107.77	20.9657	-53.4473	109.999	15.2276	-83.8019	128.812	36.9494	-23.1525	132.724	39.0937	-46.4901	133.468	42.4773	-74.5019	153.589	36.0887	-8.31219	161.072	44.6058	-31.2616	167.276	56.3496	-43.6403	132.63	38.1867	31.6749	132.735	34.9985	57.3183	103.797	26.6858	45.0928	
234	1.95	92.1926	-9.40666	48.6475	83.5839	-20.9947	19.657	77.229	-24.0296	-8.22394	80.2294	-22.361	-30.2251	94.08	7.84509	-26.9822	104.307	-17.9785	-39.1174	116.772	-41.7027	-21.5889	108.754	29.5549	-27.0865	108.038	23.1769	-52.2098	111.519	15.8636	-83.4532	127.542	38.0093	-22.4308	131.647	40.7684	-45.7545	130.077	42.7191	-76.0164	155.59	38.5515	-9.67327	157.272	43.0655	-28.6814	163.448	56.3778	-44.8054	131.212	39.5515	29.4999	132.86	34.5338	57.6449	103.704	26.4412	43.3773	
235	1.95833	91.0798	-9.40134	44.1588	84.1564	-25.171	20.7895	78.0387	-28.4788	-9.10313	78.829	-29.7843	-30.8506	90.7952	5.72539	-24.0163	101.499	-21.0647	-37.9355	121.091	-36.425	-21.5912	107.331	29.5917	-27.9905	109.065	23.403	-56.2155	112.663	17.069	-80.3286	129.163	37.7419	-20.2663	132.815	41.2792	-45.175	132.637	42.3516	-72.1789	150.613	37.5658	-8.93378	161.708	45.9429	-30.7487	166.389	56.6479	-44.276	127.679	37.7715	30.8625	132.098	33.8172	57.8854	101.64	27.0721	42.9137	
236	1.96667	90.5585	-10.6062	44.3373	85.283	-27.8944	21.7971	82.2404	-29.7267	-8.87299	84.3861	-30.0291	-33.4638	92.6415	7.76483	-24.5033	100.57	-19.7125	-37.6792	118.719	-40.1836	-17.8658	107.802	30.0603	-27.8753	107.895	24.1482	-53.324	115.038	17.5577	-84.9172	129.109	39.5724	-23.662	132.287	42.6004	-45.7231	131.228	42.2574	-71.3451	150.134	40.2828	-12.6987	156.988	44.2603	-30.7568	163.337	59.8524	-48.6091	132.772	38.5024	28.8722	132.7	31.7343	60.3879	102.303	25.8593	41.6735	
237	1.975	89.5613	-11.149	43.7177	83.5046	-29.7031	19.0209	82.1436	-32.1819	-8.61734	86.4684	-32.736	-32.1254	91.7979	9.23815	-23.851	103.268	-14.9871	-38.8857	123.362	-37.3119	-17.6334	107.821	31.3163	-30.6235	110.08	25.1214	-56.7805	114.168	17.9547	-85.1515	127.718	40.2956	-25.2302	129.335	40.9395	-46.1197	132.777	43.2492	-71.9848	151.498	39.5097	-11.5964	160.894	46.0461	-30.5151	164.346	57.393	-48.0064	127.699	39.319	28.7505	130.147	33.3657	58.2989	101.014	26.8717	44.469	
238	1.98333	91.762	-11.6729	46.7427	86.9774	-28.3707	18.882	81.1476	-35.5112	-8.90116	85.7907	-35.9896	-31.5716	92.9596	9.40776	-24.8927	98.88	-16.8448	-38.7852	119.777	-35.8961	-19.8032	108.264	31.3645	-28.8303	112.439	24.9583	-58.7161	113.96	18.3513	-81.9743	127.346	39.701	-23.2221	131.394	41.7799	-46.454	132.308	43.058	-77.1365	154.317	39.527	-11.6109	157.534	43.1225	-29.2362	162.664	58.5401	-46.0885	128.306	38.5905	31.109	135.041	32.0315	59.6441	100.515	26.6074	42.9362	
239	1.99167	89.4437	-12.5049	42.0559	87.446	-28.1583	19.6775	82.8148	-35.9837	-7.55265	87.4691	-34.7576	-35.2839	88.4899	8.64298	-23.0972	99.9185	-14.9871	-39.221	119.195	-35.6001	-19.8733	108.661	31.5767	-28.365	112.384	27.2632	-54.4107	111.288	17.5135	-83.2985	129.019	41.0821	-25.3714	131.353	42.2045	-49.3493	132.579	43.8516	-76.7143	154.315	38.3291	-8.96363	157.35	41.9352	-29.1243	166.972	59.1834	-46.4667	128.746	36.8266	27.1253	131.532	31.4897	57.0705	102.659	25.1962	45.1761	
